<svg width="2957" height="1955" xmlns="http://www.w3.org/2000/svg" xmlns:xlink="http://www.w3.org/1999/xlink" xml:space="preserve" overflow="hidden"><g transform="translate(-720 -260)"><path d="M734.5 712.25C734.5 685.878 755.879 664.5 782.25 664.5L1641.75 664.5C1668.12 664.5 1689.5 685.878 1689.5 712.25L1689.5 1763.75C1689.5 1790.12 1668.12 1811.5 1641.75 1811.5L782.25 1811.5C755.879 1811.5 734.5 1790.12 734.5 1763.75Z" stroke="#FFFFFF" stroke-width="6.875" stroke-miterlimit="8" fill="#156082" fill-rule="evenodd"/><text fill="#FFFFFF" font-family="CMU Serif,CMU Serif_MSFontService,sans-serif" font-weight="500" font-size="83" transform="matrix(-1.83697e-16 -1 1 -1.83697e-16 824.832 1449)">Vedo</text><text fill="#FFFFFF" font-family="CMU Serif,CMU Serif_MSFontService,sans-serif" font-weight="500" font-size="83" transform="matrix(-1.83697e-16 -1 1 -1.83697e-16 824.832 1236)">Shader Process</text><text fill="#FFFFFF" font-family="CMU Serif,CMU Serif_MSFontService,sans-serif" font-weight="500" font-size="96" transform="matrix(1 0 0 1 924.623 771)">路Convert</text><text fill="#FFFFFF" font-family="CMU Serif,CMU Serif_MSFontService,sans-serif" font-weight="500" font-size="96" transform="matrix(1 0 0 1 1362.77 771)">shader</text><text fill="#FFFFFF" font-family="CMU Serif,CMU Serif_MSFontService,sans-serif" font-weight="500" font-size="96" transform="matrix(1 0 0 1 924.623 884)">language</text><text fill="#FFFFFF" font-family="CMU Serif,CMU Serif_MSFontService,sans-serif" font-weight="500" font-size="96" transform="matrix(1 0 0 1 1324.2 884)">code</text><text fill="#FFFFFF" font-family="CMU Serif,CMU Serif_MSFontService,sans-serif" font-weight="500" font-size="96" transform="matrix(1 0 0 1 1511.06 884)">.</text><text fill="#FFFFFF" font-family="CMU Serif,CMU Serif_MSFontService,sans-serif" font-weight="500" font-size="96" transform="matrix(1 0 0 1 924.623 1041)">路</text><text fill="#FFFFFF" font-family="CMU Serif,CMU Serif_MSFontService,sans-serif" font-weight="500" font-size="96" transform="matrix(1 0 0 1 951.367 1041)">Replace</text><text fill="#FFFFFF" font-family="CMU Serif,CMU Serif_MSFontService,sans-serif" font-weight="500" font-size="96" transform="matrix(1 0 0 1 1313.31 1041)">link</text><text fill="#FFFFFF" font-family="CMU Serif,CMU Serif_MSFontService,sans-serif" font-weight="500" font-size="96" transform="matrix(1 0 0 1 1505.08 1041)">v</text><text fill="#FFFFFF" font-family="CMU Serif,CMU Serif_MSFontService,sans-serif" font-weight="500" font-size="96" transform="matrix(1 0 0 1 1555.79 1041)">-</text><text fill="#FFFFFF" font-family="CMU Serif,CMU Serif_MSFontService,sans-serif" font-weight="500" font-size="96" transform="matrix(1 0 0 1 1587.81 1041)">a</text><text fill="#FFFFFF" font-family="CMU Serif,CMU Serif_MSFontService,sans-serif" font-weight="500" font-size="96" transform="matrix(1 0 0 1 924.623 1154)">riables</text><text fill="#FFFFFF" font-family="CMU Serif,CMU Serif_MSFontService,sans-serif" font-weight="500" font-size="96" transform="matrix(1 0 0 1 1262.23 1154)">placeh</text><text fill="#FFFFFF" font-family="CMU Serif,CMU Serif_MSFontService,sans-serif" font-weight="500" font-size="96" transform="matrix(1 0 0 1 1529.55 1154)">-</text><text fill="#FFFFFF" font-family="CMU Serif,CMU Serif_MSFontService,sans-serif" font-weight="500" font-size="96" transform="matrix(1 0 0 1 1561.57 1154)">ol</text><text fill="#FFFFFF" font-family="CMU Serif,CMU Serif_MSFontService,sans-serif" font-weight="500" font-size="96" transform="matrix(1 0 0 1 924.623 1268)">der</text><text fill="#FFFFFF" font-family="CMU Serif,CMU Serif_MSFontService,sans-serif" font-weight="500" font-size="96" transform="matrix(1 0 0 1 924.623 1425)">路</text><text fill="#FFFFFF" font-family="CMU Serif,CMU Serif_MSFontService,sans-serif" font-weight="500" font-size="96" transform="matrix(1 0 0 1 951.367 1425)">Bind</text><text fill="#FFFFFF" font-family="CMU Serif,CMU Serif_MSFontService,sans-serif" font-weight="500" font-size="96" transform="matrix(1 0 0 1 1187.5 1425)">fake</text><text fill="#FFFFFF" font-family="CMU Serif,CMU Serif_MSFontService,sans-serif" font-weight="500" font-size="96" transform="matrix(1 0 0 1 1393.52 1425)">unif</text><text fill="#FFFFFF" font-family="CMU Serif,CMU Serif_MSFontService,sans-serif" font-weight="500" font-size="96" transform="matrix(1 0 0 1 1556.21 1425)">-</text><text fill="#FFFFFF" font-family="CMU Serif,CMU Serif_MSFontService,sans-serif" font-weight="500" font-size="96" transform="matrix(1 0 0 1 1588.22 1425)">o</text><text fill="#FFFFFF" font-family="CMU Serif,CMU Serif_MSFontService,sans-serif" font-weight="500" font-size="96" transform="matrix(1 0 0 1 924.623 1538)">rm</text><text fill="#FFFFFF" font-family="CMU Serif,CMU Serif_MSFontService,sans-serif" font-weight="500" font-size="96" transform="matrix(1 0 0 1 1079.17 1538)">array</text><text fill="#FFFFFF" font-family="CMU Serif,CMU Serif_MSFontService,sans-serif" font-weight="500" font-size="96" transform="matrix(1 0 0 1 1338.98 1538)">variab</text><text fill="#FFFFFF" font-family="CMU Serif,CMU Serif_MSFontService,sans-serif" font-weight="500" font-size="96" transform="matrix(1 0 0 1 1604.33 1538)">-</text><text fill="#FFFFFF" font-family="CMU Serif,CMU Serif_MSFontService,sans-serif" font-weight="500" font-size="96" transform="matrix(1 0 0 1 924.623 1652)">les</text><text fill="#FFFFFF" font-family="CMU Serif,CMU Serif_MSFontService,sans-serif" font-weight="500" font-size="96" transform="matrix(1 0 0 1 1063.93 1652)">into</text><text fill="#FFFFFF" font-family="CMU Serif,CMU Serif_MSFontService,sans-serif" font-weight="500" font-size="96" transform="matrix(1 0 0 1 1261.34 1652)">shader</text><path d="M1722.5 712.3C1722.5 685.901 1743.9 664.5 1770.3 664.5L2630.7 664.5C2657.1 664.5 2678.5 685.901 2678.5 712.3L2678.5 1763.7C2678.5 1790.1 2657.1 1811.5 2630.7 1811.5L1770.3 1811.5C1743.9 1811.5 1722.5 1790.1 1722.5 1763.7Z" stroke="#FFFFFF" stroke-width="6.875" stroke-miterlimit="8" fill="#156082" fill-rule="evenodd"/><text fill="#FFFFFF" font-family="CMU Serif,CMU Serif_MSFontService,sans-serif" font-weight="500" font-size="83" transform="matrix(-1.83697e-16 -1 1 -1.83697e-16 1813.61 1581)">Predefine Marco Process</text><path d="M1655.5 1563.5 1799.5 1647.5 1655.5 1731.5Z" stroke="#156082" stroke-width="6.875" stroke-miterlimit="8" fill="#FFFFFF" fill-rule="evenodd"/><text fill="#FFFFFF" font-family="CMU Serif,CMU Serif_MSFontService,sans-serif" font-weight="500" font-size="96" transform="matrix(1 0 0 1 1913.4 771)">路</text><text fill="#FFFFFF" font-family="CMU Serif,CMU Serif_MSFontService,sans-serif" font-weight="500" font-size="96" transform="matrix(1 0 0 1 1940.14 771)">Marco</text><text fill="#FFFFFF" font-family="CMU Serif,CMU Serif_MSFontService,sans-serif" font-weight="500" font-size="96" transform="matrix(1 0 0 1 2298.81 771)">replace</text><text fill="#FFFFFF" font-family="CMU Serif,CMU Serif_MSFontService,sans-serif" font-weight="500" font-size="96" transform="matrix(1 0 0 1 2593.11 771)">-</text><text fill="#FFFFFF" font-family="CMU Serif,CMU Serif_MSFontService,sans-serif" font-weight="500" font-size="96" transform="matrix(1 0 0 1 1913.4 884)">ment</text><text fill="#FFFFFF" font-family="CMU Serif,CMU Serif_MSFontService,sans-serif" font-weight="500" font-size="96" transform="matrix(1 0 0 1 2127 884)">,</text><text fill="#FFFFFF" font-family="CMU Serif,CMU Serif_MSFontService,sans-serif" font-weight="500" font-size="96" transform="matrix(1 0 0 1 2224.08 884)">happened</text><text fill="#FFFFFF" font-family="CMU Serif,CMU Serif_MSFontService,sans-serif" font-weight="500" font-size="96" transform="matrix(1 0 0 1 1913.4 997)">in</text><text fill="#FFFFFF" font-family="CMU Serif,CMU Serif_MSFontService,sans-serif" font-weight="500" font-size="96" transform="matrix(1 0 0 1 2062.38 997)">the</text><text fill="#FFFFFF" font-family="CMU Serif,CMU Serif_MSFontService,sans-serif" font-weight="500" font-size="96" transform="matrix(1 0 0 1 2264.85 997)">modified</text><text fill="#FFFFFF" font-family="CMU Serif,CMU Serif_MSFontService,sans-serif" font-weight="500" font-size="96" transform="matrix(1 0 0 1 1913.4 1110)">Skia</text><path d="M2711.5 712.25C2711.5 685.878 2732.88 664.5 2759.25 664.5L3618.75 664.5C3645.12 664.5 3666.5 685.878 3666.5 712.25L3666.5 1763.75C3666.5 1790.12 3645.12 1811.5 3618.75 1811.5L2759.25 1811.5C2732.88 1811.5 2711.5 1790.12 2711.5 1763.75Z" stroke="#FFFFFF" stroke-width="6.875" stroke-miterlimit="8" fill="#156082" fill-rule="evenodd"/><text fill="#FFFFFF" font-family="CMU Serif,CMU Serif_MSFontService,sans-serif" font-weight="500" font-size="83" transform="matrix(-1.83697e-16 -1 1 -1.83697e-16 2802.38 1348)">Native </text><text fill="#FFFFFF" font-family="CMU Serif,CMU Serif_MSFontService,sans-serif" font-weight="500" font-size="83" transform="matrix(-1.83697e-16 -1 1 -1.83697e-16 2802.38 1082)">Skia</text><text fill="#FFFFFF" font-family="CMU Serif,CMU Serif_MSFontService,sans-serif" font-weight="500" font-size="83" transform="matrix(-1.83697e-16 -1 1 -1.83697e-16 2802.38 901)">SKSL</text><path d="M2644.5 1563.5 2788.5 1647.5 2644.5 1731.5Z" stroke="#156082" stroke-width="6.875" stroke-miterlimit="8" fill="#FFFFFF" fill-rule="evenodd"/><text fill="#FFFFFF" font-family="CMU Serif,CMU Serif_MSFontService,sans-serif" font-weight="500" font-size="96" transform="matrix(1 0 0 1 2902.17 771)">The</text><text fill="#FFFFFF" font-family="CMU Serif,CMU Serif_MSFontService,sans-serif" font-weight="500" font-size="96" transform="matrix(1 0 0 1 3110.72 771)">work</text><text fill="#FFFFFF" font-family="CMU Serif,CMU Serif_MSFontService,sans-serif" font-weight="500" font-size="96" transform="matrix(1 0 0 1 3359.54 771)">of</text><text fill="#FFFFFF" font-family="CMU Serif,CMU Serif_MSFontService,sans-serif" font-weight="500" font-size="96" transform="matrix(1 0 0 1 3479.95 771)">na</text><text fill="#FFFFFF" font-family="CMU Serif,CMU Serif_MSFontService,sans-serif" font-weight="500" font-size="96" transform="matrix(1 0 0 1 3581.88 771)">-</text><text fill="#FFFFFF" font-family="CMU Serif,CMU Serif_MSFontService,sans-serif" font-weight="500" font-size="96" transform="matrix(1 0 0 1 2902.17 884)">tive</text><text fill="#FFFFFF" font-family="CMU Serif,CMU Serif_MSFontService,sans-serif" font-weight="500" font-size="96" transform="matrix(1 0 0 1 3112.71 884)">Skia</text><text fill="#FFFFFF" font-family="CMU Serif,CMU Serif_MSFontService,sans-serif" font-weight="500" font-size="96" transform="matrix(1 0 0 1 3345.24 884)">SKSL,</text><text fill="#FFFFFF" font-family="CMU Serif,CMU Serif_MSFontService,sans-serif" font-weight="500" font-size="96" transform="matrix(1 0 0 1 2902.17 997)">running</text><text fill="#FFFFFF" font-family="CMU Serif,CMU Serif_MSFontService,sans-serif" font-weight="500" font-size="96" transform="matrix(1 0 0 1 3278.81 997)">on</text><text fill="#FFFFFF" font-family="CMU Serif,CMU Serif_MSFontService,sans-serif" font-weight="500" font-size="96" transform="matrix(1 0 0 1 3432.05 997)">SKS</text><text fill="#FFFFFF" font-family="CMU Serif,CMU Serif_MSFontService,sans-serif" font-weight="500" font-size="96" transform="matrix(1 0 0 1 2902.17 1110)">L</text><text fill="#FFFFFF" font-family="CMU Serif,CMU Serif_MSFontService,sans-serif" font-weight="500" font-size="96" transform="matrix(1 0 0 1 3006.33 1110)">VM</text><text fill="#FFFFFF" font-family="CMU Serif,CMU Serif_MSFontService,sans-serif" font-weight="500" font-size="96" transform="matrix(1 0 0 1 3210.77 1110)">or</text><text fill="#FFFFFF" font-family="CMU Serif,CMU Serif_MSFontService,sans-serif" font-weight="500" font-size="96" transform="matrix(1 0 0 1 3340.5 1110)">transl</text><text fill="#FFFFFF" font-family="CMU Serif,CMU Serif_MSFontService,sans-serif" font-weight="500" font-size="96" transform="matrix(1 0 0 1 3581.88 1110)">-</text><text fill="#FFFFFF" font-family="CMU Serif,CMU Serif_MSFontService,sans-serif" font-weight="500" font-size="96" transform="matrix(1 0 0 1 2902.17 1224)">ate</text><text fill="#FFFFFF" font-family="CMU Serif,CMU Serif_MSFontService,sans-serif" font-weight="500" font-size="96" transform="matrix(1 0 0 1 3066.65 1224)">to</text><text fill="#FFFFFF" font-family="CMU Serif,CMU Serif_MSFontService,sans-serif" font-weight="500" font-size="96" transform="matrix(1 0 0 1 3187.94 1224)">SPIR</text><text fill="#FFFFFF" font-family="CMU Serif,CMU Serif_MSFontService,sans-serif" font-weight="500" font-size="96" transform="matrix(1 0 0 1 3412.48 1224)">-</text><text fill="#FFFFFF" font-family="CMU Serif,CMU Serif_MSFontService,sans-serif" font-weight="500" font-size="96" transform="matrix(1 0 0 1 3444.5 1224)">V</text><text fill="#FFFFFF" font-family="CMU Serif,CMU Serif_MSFontService,sans-serif" font-weight="500" font-size="96" transform="matrix(1 0 0 1 3552.55 1224)">f</text><text fill="#FFFFFF" font-family="CMU Serif,CMU Serif_MSFontService,sans-serif" font-weight="500" font-size="96" transform="matrix(1 0 0 1 3581.88 1224)">-</text><text fill="#FFFFFF" font-family="CMU Serif,CMU Serif_MSFontService,sans-serif" font-weight="500" font-size="96" transform="matrix(1 0 0 1 2902.17 1337)">or</text><text fill="#FFFFFF" font-family="CMU Serif,CMU Serif_MSFontService,sans-serif" font-weight="500" font-size="96" transform="matrix(1 0 0 1 3019.92 1337)">GPU</text><text fill="#FFFFFF" font-family="CMU Serif,CMU Serif_MSFontService,sans-serif" font-weight="500" font-size="96" transform="matrix(1 0 0 1 3264.76 1337)">running</text></g></svg>