<svg width="2062" height="1209" xmlns="http://www.w3.org/2000/svg" xmlns:xlink="http://www.w3.org/1999/xlink" xml:space="preserve" overflow="hidden"><defs><linearGradient x1="1627.5" y1="830" x2="1627.5" y2="1572" gradientUnits="userSpaceOnUse" spreadMethod="reflect" id="fill0"><stop offset="0" stop-color="#497491"/><stop offset="0.5" stop-color="#106287"/><stop offset="1" stop-color="#08587C"/></linearGradient><linearGradient x1="2008" y1="1134" x2="2008" y2="1268" gradientUnits="userSpaceOnUse" spreadMethod="reflect" id="fill1"><stop offset="0" stop-color="#B5BFC9"/><stop offset="0.5" stop-color="#A9B6C2"/><stop offset="1" stop-color="#94A2AD"/></linearGradient><linearGradient x1="2382.5" y1="830" x2="2382.5" y2="1572" gradientUnits="userSpaceOnUse" spreadMethod="reflect" id="fill2"><stop offset="0" stop-color="#497491"/><stop offset="0.5" stop-color="#106287"/><stop offset="1" stop-color="#08587C"/></linearGradient><linearGradient x1="2762.5" y1="1134" x2="2762.5" y2="1268" gradientUnits="userSpaceOnUse" spreadMethod="reflect" id="fill3"><stop offset="0" stop-color="#B5BFC9"/><stop offset="0.5" stop-color="#A9B6C2"/><stop offset="1" stop-color="#94A2AD"/></linearGradient><linearGradient x1="3136.5" y1="830" x2="3136.5" y2="1572" gradientUnits="userSpaceOnUse" spreadMethod="reflect" id="fill4"><stop offset="0" stop-color="#497491"/><stop offset="0.5" stop-color="#106287"/><stop offset="1" stop-color="#08587C"/></linearGradient></defs><g transform="translate(-1346 -597)"><path d="M1358 883.9C1358 854.132 1382.13 830 1411.9 830L1843.1 830C1872.87 830 1897 854.132 1897 883.9L1897 1518.1C1897 1547.87 1872.87 1572 1843.1 1572L1411.9 1572C1382.13 1572 1358 1547.87 1358 1518.1Z" fill="url(#fill0)" fill-rule="evenodd"/><text fill="#FFFFFF" font-family="CMU Serif,CMU Serif_MSFontService,sans-serif" font-weight="500" font-size="78" transform="matrix(1 0 0 1 1397.62 934)">Vedo</text><text fill="#FFFFFF" font-family="CMU Serif,CMU Serif_MSFontService,sans-serif" font-weight="500" font-size="78" transform="matrix(1 0 0 1 1598.79 934)">Shader </text><text fill="#FFFFFF" font-family="CMU Serif,CMU Serif_MSFontService,sans-serif" font-weight="500" font-size="78" transform="matrix(1 0 0 1 1397.62 1026)">Process</text><text fill="#FFFFFF" font-family="CMU Serif,CMU Serif_MSFontService,sans-serif" font-weight="500" font-size="60" transform="matrix(1 0 0 1 1397.62 1138)">•</text><text fill="#FFFFFF" font-family="CMU Serif,CMU Serif_MSFontService,sans-serif" font-weight="500" font-size="60" transform="matrix(1 0 0 1 1438.88 1138)">Convert shader </text><text fill="#FFFFFF" font-family="CMU Serif,CMU Serif_MSFontService,sans-serif" font-weight="500" font-size="60" transform="matrix(1 0 0 1 1438.88 1208)">language code. </text><text fill="#FFFFFF" font-family="CMU Serif,CMU Serif_MSFontService,sans-serif" font-weight="500" font-size="60" transform="matrix(1 0 0 1 1438.88 1278)">(Replace </text><text fill="#FFFFFF" font-family="CMU Serif,CMU Serif_MSFontService,sans-serif" font-weight="500" font-size="60" transform="matrix(1 0 0 1 1438.88 1348)">placeholder </text><text fill="#FFFFFF" font-family="CMU Serif,CMU Serif_MSFontService,sans-serif" font-weight="500" font-size="60" transform="matrix(1 0 0 1 1438.88 1418)">with specified </text><text fill="#FFFFFF" font-family="CMU Serif,CMU Serif_MSFontService,sans-serif" font-weight="500" font-size="60" transform="matrix(1 0 0 1 1438.88 1489)">value)</text><path d="M1951 1160.8 2008 1160.8 2008 1134 2065 1201 2008 1268 2008 1241.2 1951 1241.2Z" fill="url(#fill1)" fill-rule="evenodd"/><path d="M2113 883.9C2113 854.132 2137.13 830 2166.9 830L2598.1 830C2627.87 830 2652 854.132 2652 883.9L2652 1518.1C2652 1547.87 2627.87 1572 2598.1 1572L2166.9 1572C2137.13 1572 2113 1547.87 2113 1518.1Z" fill="url(#fill2)" fill-rule="evenodd"/><text fill="#FFFFFF" font-family="CMU Serif,CMU Serif_MSFontService,sans-serif" font-weight="500" font-size="78" transform="matrix(1 0 0 1 2151.94 934)">Predefine </text><text fill="#FFFFFF" font-family="CMU Serif,CMU Serif_MSFontService,sans-serif" font-weight="500" font-size="78" transform="matrix(1 0 0 1 2151.94 1026)">Marco </text><text fill="#FFFFFF" font-family="CMU Serif,CMU Serif_MSFontService,sans-serif" font-weight="500" font-size="78" transform="matrix(1 0 0 1 2151.94 1118)">Process</text><text fill="#FFFFFF" font-family="CMU Serif,CMU Serif_MSFontService,sans-serif" font-weight="500" font-size="60" transform="matrix(1 0 0 1 2151.94 1230)">•</text><text fill="#FFFFFF" font-family="CMU Serif,CMU Serif_MSFontService,sans-serif" font-weight="500" font-size="60" transform="matrix(1 0 0 1 2193.19 1230)">Marco </text><text fill="#FFFFFF" font-family="CMU Serif,CMU Serif_MSFontService,sans-serif" font-weight="500" font-size="60" transform="matrix(1 0 0 1 2193.19 1300)">replacement, </text><text fill="#FFFFFF" font-family="CMU Serif,CMU Serif_MSFontService,sans-serif" font-weight="500" font-size="60" transform="matrix(1 0 0 1 2193.19 1370)">happened in </text><text fill="#FFFFFF" font-family="CMU Serif,CMU Serif_MSFontService,sans-serif" font-weight="500" font-size="60" transform="matrix(1 0 0 1 2193.19 1440)">the modified </text><text fill="#FFFFFF" font-family="CMU Serif,CMU Serif_MSFontService,sans-serif" font-weight="500" font-size="60" transform="matrix(1 0 0 1 2193.19 1510)">Skia</text><text fill="#FFFFFF" font-family="CMU Serif,CMU Serif_MSFontService,sans-serif" font-weight="500" font-size="60" transform="matrix(1 0 0 1 2304.2 1510)">.</text><path d="M2705 1160.8 2762.5 1160.8 2762.5 1134 2820 1201 2762.5 1268 2762.5 1241.2 2705 1241.2Z" fill="url(#fill3)" fill-rule="evenodd"/><path d="M2867 883.9C2867 854.132 2891.13 830 2920.9 830L3352.1 830C3381.87 830 3406 854.132 3406 883.9L3406 1518.1C3406 1547.87 3381.87 1572 3352.1 1572L2920.9 1572C2891.13 1572 2867 1547.87 2867 1518.1Z" fill="url(#fill4)" fill-rule="evenodd"/><text fill="#FFFFFF" font-family="CMU Serif,CMU Serif_MSFontService,sans-serif" font-weight="500" font-size="78" transform="matrix(1 0 0 1 2906.26 934)">Native </text><text fill="#FFFFFF" font-family="CMU Serif,CMU Serif_MSFontService,sans-serif" font-weight="500" font-size="78" transform="matrix(1 0 0 1 3157.29 934)">Skia</text><text fill="#FFFFFF" font-family="CMU Serif,CMU Serif_MSFontService,sans-serif" font-weight="500" font-size="78" transform="matrix(1 0 0 1 2906.26 1026)">SKSL</text><text fill="#FFFFFF" font-family="CMU Serif,CMU Serif_MSFontService,sans-serif" font-weight="500" font-size="60" transform="matrix(1 0 0 1 2906.26 1138)">•</text><text fill="#FFFFFF" font-family="CMU Serif,CMU Serif_MSFontService,sans-serif" font-weight="500" font-size="60" transform="matrix(1 0 0 1 2947.51 1138)">The native </text><text fill="#FFFFFF" font-family="CMU Serif,CMU Serif_MSFontService,sans-serif" font-weight="500" font-size="60" transform="matrix(1 0 0 1 3250.15 1138)">Skia</text><text fill="#FFFFFF" font-family="CMU Serif,CMU Serif_MSFontService,sans-serif" font-weight="500" font-size="60" transform="matrix(1 0 0 1 2947.51 1208)">SKSL</text></g></svg>